<?xml version="1.0" encoding="utf-8"?>
<!-- Generator: Adobe Illustrator 19.0.0, SVG Export Plug-In . SVG Version: 6.00 Build 0)  -->
<svg version="1.1" id="Layer_1" xmlns="http://www.w3.org/2000/svg" xmlns:xlink="http://www.w3.org/1999/xlink" x="0px" y="0px"
	 viewBox="-393 295 12 12" style="enable-background:new -393 295 12 12;" xml:space="preserve">
<style type="text/css">
	.st0{fill:#FFC600;}
</style>
<g>
	<path class="st0" d="M-381.1,298c-0.1-0.1-0.2-0.2-0.3-0.2h-2.3v1.2c0,0.6-0.5,1-1.1,1c-0.6,0-1.1-0.5-1.1-1v-1.2h-2.2v1.2
		c0,0.6-0.5,1-1.1,1s-1.1-0.5-1.1-1v-1.2h-2.3c-0.1,0-0.2,0.1-0.3,0.2c-0.1,0.1-0.1,0.2-0.1,0.4l0.8,7.1c0,0.8,0.6,1.5,1.4,1.5h7.6
		c0.8,0,1.4-0.6,1.4-1.5l0.8-7.1C-381,298.2-381.1,298.1-381.1,298z"/>
	<path class="st0" d="M-389.2,299.5c0.2,0,0.4-0.2,0.4-0.4v-2.2c0-0.6,0.7-1,1.3-1h1.1c0.7,0,1.1,0.4,1.1,1v2.2
		c0,0.2,0.2,0.4,0.4,0.4c0.2,0,0.4-0.2,0.4-0.4v-2.2c0-1.1-0.8-1.8-1.9-1.8h-1.1c-1.2,0-2.2,0.8-2.2,1.8v2.2
		C-389.6,299.3-389.4,299.5-389.2,299.5z"/>
</g>
</svg>
